# xmcd
#
# Track frame offsets:
# 150
# 12535
# 25372
# 36852
# 48477
# 65107
# 75510
# 85310
# 98442
# 113245
# 125982
# 139665
# 148945
# 158330
# 173095
# 183947
# 195347
# 210435
# 223802
# 236550
# 252995
# 269275
# 281570
# 304985
# 319037
# 334157
#
# Disc length: 4675 seconds
#
#
# Revision: 1
# Processed by: cddbd v1.5.1PL0 Copyright (c) Steve Scherf et al.
# Submitted via: FreeRIP 2.941 
#
DISCID=7c12411a
DTITLE=Hank Snow - The Singing Ranger, Vol. 4 (2 of 9)
DYEAR=1994
DGENRE=Country
TTITLE0=I'm Movin' On
TTITLE1=Silver Rails
TTITLE2=Go With My Heart
TTITLE3=Wabash Cannonball
TTITLE4=The Engineer's Child
TTITLE5=Casey Jones Was His Name
TTITLE6=Fireball Mail
TTITLE7=Folsom Prison Blues
TTITLE8=Lonely Train
TTITLE9=That Same Old Dotted Line
TTITLE10=I'm Movin' On
TTITLE11=The Train My Woman's On
TTITLE12=Duquesne, Pennsylvania
TTITLE13=Canadian Pacific
TTITLE14=Crack In The Box Car Door
TTITLE15=North to Chicago
TTITLE16=City of New Orleans
TTITLE17=The Texas Silver Zephyr
TTITLE18=Get on My Love Train
TTITLE19=My Blue River Rose
TTITLE20=The Blue Velvet Band
TTITLE21=Wanderin' On
TTITLE22=Old Doc Brown
TTITLE23=Stolen Moments
TTITLE24=When That Someone You Love Doesn't Love You
TTITLE25=My Mother
EXTD=
EXTT0=
EXTT1=
EXTT2=
EXTT3=
EXTT4=
EXTT5=
EXTT6=
EXTT7=
EXTT8=
EXTT9=
EXTT10=
EXTT11=
EXTT12=
EXTT13=
EXTT14=
EXTT15=
EXTT16=
EXTT17=
EXTT18=
EXTT19=
EXTT20=
EXTT21=
EXTT22=
EXTT23=
EXTT24=
EXTT25=
PLAYORDER=
